<mxfile host="app.diagrams.net" agent="Mozilla/5.0 (Windows NT 10.0; Win64; x64) AppleWebKit/537.36 (KHTML, like Gecko) Chrome/127.0.0.0 Safari/537.36 Edg/127.0.0.0" version="24.7.7">
  <diagram name="mapreduce" id="MYQHXttA79bfe6cPj3TS">
    <mxGraphModel dx="1242" dy="533" grid="1" gridSize="10" guides="1" tooltips="1" connect="1" arrows="1" fold="1" page="1" pageScale="1" pageWidth="827" pageHeight="1169" math="0" shadow="0">
      <root>
        <mxCell id="0" />
        <mxCell id="1" parent="0" />
        <mxCell id="3Ce5c0npjsE00Z1XvKfe-1" value="" style="rounded=0;whiteSpace=wrap;html=1;" vertex="1" parent="1">
          <mxGeometry x="120" y="50" width="780" height="100" as="geometry" />
        </mxCell>
        <mxCell id="3Ce5c0npjsE00Z1XvKfe-2" value="FileInput" style="rounded=1;whiteSpace=wrap;html=1;" vertex="1" parent="1">
          <mxGeometry x="150" y="70" width="90" height="50" as="geometry" />
        </mxCell>
        <mxCell id="3Ce5c0npjsE00Z1XvKfe-3" value="FileOutput" style="rounded=1;whiteSpace=wrap;html=1;" vertex="1" parent="1">
          <mxGeometry x="780" y="70" width="90" height="50" as="geometry" />
        </mxCell>
        <mxCell id="3Ce5c0npjsE00Z1XvKfe-4" value="Mapper" style="rounded=1;whiteSpace=wrap;html=1;" vertex="1" parent="1">
          <mxGeometry x="320" y="70" width="90" height="50" as="geometry" />
        </mxCell>
        <mxCell id="3Ce5c0npjsE00Z1XvKfe-5" value="Shuffle" style="rounded=1;whiteSpace=wrap;html=1;" vertex="1" parent="1">
          <mxGeometry x="480" y="70" width="90" height="50" as="geometry" />
        </mxCell>
        <mxCell id="3Ce5c0npjsE00Z1XvKfe-6" value="Reducer" style="rounded=1;whiteSpace=wrap;html=1;" vertex="1" parent="1">
          <mxGeometry x="630" y="70" width="90" height="50" as="geometry" />
        </mxCell>
        <mxCell id="3Ce5c0npjsE00Z1XvKfe-7" value="MapReduce" style="text;html=1;align=center;verticalAlign=middle;whiteSpace=wrap;rounded=0;" vertex="1" parent="1">
          <mxGeometry x="40" y="10" width="100" height="30" as="geometry" />
        </mxCell>
      </root>
    </mxGraphModel>
  </diagram>
</mxfile>
